<svg xmlns="http://www.w3.org/2000/svg" xml:space="preserve" width="800" height="800" viewBox="0 0 512 512">
  <path d="M437.019 74.982C388.667 26.63 324.38.001 256 .001c-41.936 0-83.541 10.367-120.314 29.979L150 56.819c32.383-17.272 69.038-26.401 106-26.401 60.255 0 116.904 23.465 159.511 66.071S481.583 195.745 481.583 256s-23.465 116.904-66.072 159.511S316.256 481.582 256 481.582s-116.904-23.465-159.511-66.071-66.072-99.255-66.072-159.51c0-36.964 9.13-73.62 26.404-106.005L29.983 135.68C10.368 172.455 0 214.061 0 256.001c0 68.38 26.628 132.668 74.98 181.019S187.619 512 256 512s132.668-26.629 181.02-74.98S512 324.38 512 256.001s-26.629-132.668-74.981-181.019"/>
  <path d="M256 87.692c-92.806 0-168.308 75.503-168.308 168.308S163.194 424.309 256 424.309c17.92 0 35.566-2.805 52.447-8.337l-9.472-28.904c-13.82 4.528-28.278 6.824-42.975 6.824-76.034 0-137.891-61.858-137.891-137.891S179.966 118.108 256 118.108 393.891 179.967 393.891 256c0 14.697-2.297 29.156-6.825 42.975l28.905 9.472c5.531-16.882 8.336-34.527 8.336-52.446.001-92.805-75.501-168.309-168.307-168.309"/>
  <path d="M344.21 271.209v-30.417h-25.899a63.8 63.8 0 0 0-7.503-18.091l18.32-18.32-21.509-21.508-18.319 18.32a63.8 63.8 0 0 0-18.091-7.503v-25.899h-30.417v25.899a63.8 63.8 0 0 0-18.091 7.503l-18.32-18.32-21.508 21.508 18.32 18.32a63.8 63.8 0 0 0-7.503 18.092h-25.9v30.417h25.899a63.8 63.8 0 0 0 7.503 18.092l-18.32 18.32 21.508 21.508 18.32-18.32a63.8 63.8 0 0 0 18.091 7.503v25.899h30.417v-25.901a63.8 63.8 0 0 0 18.091-7.503l18.319 18.32 21.509-21.508-18.32-18.32a63.8 63.8 0 0 0 7.503-18.091zm20.048 42.21c-28.031 0-50.838 22.806-50.838 50.839s22.806 50.838 50.838 50.838 50.838-22.806 50.838-50.838-22.806-50.839-50.838-50.839M85.735 34.896c-28.032 0-50.838 22.806-50.838 50.839s22.806 50.838 50.838 50.838c28.031 0 50.838-22.806 50.838-50.838s-22.806-50.839-50.838-50.839"/>
</svg>
